<svg height='100px' width='100px'  fill="#000000" xmlns:dc="http://purl.org/dc/elements/1.1/" xmlns:cc="http://creativecommons.org/ns#" xmlns:rdf="http://www.w3.org/1999/02/22-rdf-syntax-ns#" xmlns:svg="http://www.w3.org/2000/svg" xmlns="http://www.w3.org/2000/svg" xmlns:sodipodi="http://sodipodi.sourceforge.net/DTD/sodipodi-0.dtd" xmlns:inkscape="http://www.inkscape.org/namespaces/inkscape" version="1.0" x="0px" y="0px" viewBox="0 0 32 32" enable-background="new 0 0 32 32" xml:space="preserve"><path style="color:#000000;font-style:normal;font-variant:normal;font-weight:normal;font-stretch:normal;font-size:medium;line-height:normal;font-family:sans-serif;text-indent:0;text-align:start;text-decoration:none;text-decoration-line:none;text-decoration-style:solid;text-decoration-color:#000000;letter-spacing:normal;word-spacing:normal;text-transform:none;direction:ltr;block-progression:tb;writing-mode:lr-tb;baseline-shift:baseline;text-anchor:start;white-space:normal;clip-rule:nonzero;display:inline;overflow:visible;visibility:visible;opacity:1;isolation:auto;mix-blend-mode:normal;color-interpolation:sRGB;color-interpolation-filters:linearRGB;solid-color:#000000;solid-opacity:1;fill:#000000;fill-opacity:1;fill-rule:nonzero;stroke:none;stroke-width:1;stroke-linecap:round;stroke-linejoin:round;stroke-miterlimit:10;stroke-dasharray:none;stroke-dashoffset:0;stroke-opacity:1;color-rendering:auto;image-rendering:auto;shape-rendering:auto;text-rendering:auto;enable-background:accumulate" d="M 16.130859 3.0839844 C 15.70744 3.0803978 15.286538 3.0970498 14.869141 3.1347656 C 9.8603747 3.5873555 5.3728187 6.9699075 3.7363281 12.066406 L 3.7382812 12.066406 C 1.8964165 17.74717 4.2378141 23.823883 9.0898438 26.902344 L 16.736328 3.1191406 C 16.534424 3.107883 16.331869 3.085687 16.130859 3.0839844 z M 17.755859 3.2148438 L 9.9824219 27.390625 L 9.8144531 27.335938 C 10.381515 27.644966 10.982191 27.9072 11.607422 28.132812 L 19.53125 3.5878906 C 18.940666 3.4205713 18.348057 3.2957018 17.755859 3.2148438 z M 20.480469 3.9003906 L 12.560547 28.435547 C 13.193413 28.610282 13.827088 28.746239 14.460938 28.822266 L 22.21875 4.6875 C 21.668438 4.38314 21.084942 4.1252571 20.480469 3.9003906 z M 23.095703 5.2265625 L 15.486328 28.894531 C 21.134304 29.114487 26.454462 25.583549 28.269531 19.933594 C 28.276431 19.910564 28.281646 19.887061 28.285156 19.863281 C 30.059977 14.278679 27.771056 8.3299753 23.095703 5.2265625 z "></path></svg>